<svg xmlns="http://www.w3.org/2000/svg" width="99.203" height="78.775" viewBox="0 0 99.203 78.775">
  <g id="bpost" transform="translate(-6.399 -12.493)">
    <path id="Path_14" data-name="Path 14" d="M86.125,53.543c-.351,6.41-2.378,13.906-6.315,22.063-9.924,20.508-29.019,34.359-42.417,29.38C27.143,101.17,25.36,86.964,30.712,70.3L42.681,66.7a52.818,52.818,0,0,0-2.983,4.97C32.973,84.453,32.508,97.8,38.68,101.482c6.157,3.683,16.609-3.7,23.343-16.467C67.1,75.374,68.616,65.42,66.4,59.521l19.721-5.978" transform="translate(-10.162 -19.699)" fill="#fff"/>
    <path id="Path_15" data-name="Path 15" d="M112.78,42.187a3.132,3.132,0,0,1-.086.327C101.182,86.8,58.259,117.248,32.38,106.362c-13.839-5.831-18.969-18.577-18.8-34.161l10.294-3.125c-3.56,16.069-.561,29.611,9.773,34.288,14.6,6.589,37.543-10.593,48.445-32.878a80.367,80.367,0,0,0,7.3-21.221l23.386-7.077" transform="translate(-7.178 -17.312)" fill="#fff"/>
    <path id="Path_16" data-name="Path 16" d="M45.058,51.84C55.568,39.985,70.465,32.1,77.594,38.659l6.074-8.243c-11.534-10.2-29.642,1.024-40.856,16.711l2.246,4.714" transform="translate(-13.326 -14.014)" fill="#fff"/>
    <path id="Path_17" data-name="Path 17" d="M48.756,61.459c6.176-7.675,13.459-11.38,18.188-8.551a7.238,7.238,0,0,1,2.107,1.94l7-9.609c-6.626-6.777-20.268.518-29.753,11.056l2.459,5.164" transform="translate(-14.058 -17.401)" fill="#fff"/>
  </g>
</svg>
