<svg xmlns="http://www.w3.org/2000/svg" width="240" height="33.976" viewBox="0 0 240 33.976">
  <g id="dhl" transform="translate(-26.001 -223.44)">
    <g id="Group_3" data-name="Group 3" transform="translate(26.001 223.44)">
      <path id="Path_11" data-name="Path 11" d="M115.251,257.378h22.012l8.363-11.325H123.614ZM26,250.515v2.4H56.676l1.762-2.4Zm64.837-4.462c-3.263,0-2.25-1.351-1.725-2.063,1.05-1.424,2.85-3.9,3.9-5.287s1.05-2.213-1.05-2.213H72.838L57.426,257.415H94.963c12.412,0,19.312-8.438,21.45-11.362ZM209.9,243.466l14.738-20.026H201.313l-14.737,20.026ZM61.739,246.053H26v2.4H59.976Zm41.625-9.975c-1.05,1.424-2.812,3.9-3.862,5.325-.525.75-1.538,2.063,1.725,2.063h17.1s2.738-3.751,5.062-6.9c3.151-4.275.262-13.124-10.95-13.124H68.227l-7.65,10.424h41.775C104.451,233.865,104.414,234.69,103.363,236.078ZM26,257.378H53.413l1.763-2.4H26Zm121.124,0h22.013l8.362-11.325H155.488C155.451,246.053,147.125,257.378,147.125,257.378Zm83.252.038H266v-2.4H232.139Zm8.362-11.363-1.762,2.4H266v-2.4Zm-5.062,6.862H266v-2.4H235.438ZM172.1,223.44l-8.438,11.475h-9.825l8.439-11.475H140.263l-14.738,20.026h53.85l14.737-20.026Zm12.564,22.613s-1.614,2.212-2.4,3.263c-2.775,3.749-.339,8.1,8.7,8.1h35.363l8.361-11.362Z" transform="translate(-26.001 -223.44)" fill="#fff"/>
    </g>
  </g>
</svg>
