<svg xmlns="http://www.w3.org/2000/svg" width="160" height="70.06" viewBox="0 0 160 70.06">
  <g id="dpd" transform="translate(-5.086 -20.993)">
    <path id="Path_23" data-name="Path 23" d="M6.6,36.26a17.578,17.578,0,0,1,1.953,1.107l7.879,4.59c.684.407,1.319.749,1.986,1.156L20.4,44.268c.342.179.635.391.993.57l9.328,5.453c.2.1.325.179.521.293.342.211.651.374.993.57l1.969,1.156c.358.212.668.375,1.009.57l1.97,1.156a1.086,1.086,0,0,1,.618.96V81.009a1.117,1.117,0,0,1-.342.749,6.968,6.968,0,0,1-.716.423c-1.774,1.058-1.53.879-3.207.016-.488-.26-1.058-.472-1.074-1.123-.065-1.449,0-3.044,0-4.493V58.756c0-1.644.065-1.189-2-2.442-2.556-1.53-5.177-2.963-7.749-4.493l-6.349-3.7c-.456-.26-.912-.553-1.384-.83l-2.084-1.2c-.26-.146-.456-.26-.716-.423-.5-.277-.96-.537-1.449-.814-.472-.293-.928-.554-1.4-.831L6.518,42.38c-.26-.163-.456-.277-.716-.423a5.914,5.914,0,0,1-.716-.407V71.339c0,1.986.033,2.377,1.628,3.337L32.5,89.88a6.264,6.264,0,0,0,2.6,1.172,3.681,3.681,0,0,0,1.872-.716L63.542,74.66c1.676-1.009,1.644-1.514,1.644-3.321V41.55c-.212.114-.374.2-.586.325l-1.156.684c-1.172.683-4.134,2.458-5.258,3.044-1.123.6-2.425,1.4-3.516,2.051l-2.328,1.351c-1.726,1.042-3.516,2.019-5.242,3.077-.961.57-1.335.1-2.393-.537-1.351-.8-.944-1.074-1.075-2.556a1.711,1.711,0,0,1,.179-1.074,1.887,1.887,0,0,1,.651-.521l2.328-1.335c2.034-1.2,4.1-2.344,6.1-3.565.277-.163.488-.277.749-.439.277-.163.521-.309.8-.456L59.8,38.473c.375-.228,3.581-2.149,3.874-2.214a1.2,1.2,0,0,0-.39-.277L41.175,23.921c-.733-.407-1.53-.765-2.247-1.2-.846-.521-1.774-.977-2.653-1.465a2.709,2.709,0,0,0-1.693-.212,3.282,3.282,0,0,0-.521.179c-.912.439-1.791.96-2.654,1.449l-9.751,5.307a3.308,3.308,0,0,1-.472.244l-3.516,1.937c-.179.081-.26.147-.456.244-1.2.6-3.142,1.726-4.444,2.425L9.237,34.746A20.02,20.02,0,0,0,6.6,36.26" transform="translate(0 0)" fill="#fff" fill-rule="evenodd"/>
    <path id="Path_24" data-name="Path 24" d="M87.134,48.717a7.1,7.1,0,0,1,1.872-5.144l.2-.2.016-.016A6.767,6.767,0,0,1,93.45,41.7a10.413,10.413,0,0,1,4.8.765V56.009c-.472.049-1.026.179-1.514.212-2.588.211-5.648-.033-7.488-1.889a6.243,6.243,0,0,1-1.53-2.312A9.011,9.011,0,0,1,87.134,48.717ZM98.252,36.361l-.863-.309a10.463,10.463,0,0,0-1.026-.228,16.248,16.248,0,0,0-8.595.846,11.862,11.862,0,0,0-5.274,4.167,13.8,13.8,0,0,0-1.6,3.175,12.226,12.226,0,0,0-.342,1.27,16.527,16.527,0,0,0,.325,8.546,11.938,11.938,0,0,0,1.661,3.207,10.793,10.793,0,0,0,.814.96l1.254,1.172a11.253,11.253,0,0,0,1.888,1.2,15.226,15.226,0,0,0,4.541,1.514c.814.163,1.579.163,2.165.26.374.049.846.016,1.172.065l3.5-.114c.325-.032.765-.065,1.139-.1.325-.016.749-.065,1.074-.1,1.189-.146,2.556-.325,3.7-.57l.961-.228c.2-.049.423-.033.423-.228V24.8c0-.114-.049-.163-.163-.163H98.252Zm-57.69,5.584,1.579.521V56.009l-1.514.212c-.277.033-.57.016-.814.049l-1.058.016a9.833,9.833,0,0,1-3.174-.5A6.746,6.746,0,0,1,33.22,54.4C28.093,49.254,31.836,39.714,40.562,41.945Zm1.579-5.584a4.526,4.526,0,0,1-.423-.163C35.271,33.805,27.539,37.11,25,43.41c-.147.375-.293.814-.407,1.2a15.365,15.365,0,0,0,1.286,11.623,11.678,11.678,0,0,0,5.8,4.737,17.594,17.594,0,0,0,6.218,1.188,6.636,6.636,0,0,0,1.172.049c.846-.1,2.556-.049,3.5-.179.391-.049.733-.049,1.14-.1,1.774-.228,2.539-.342,4.281-.683l1.026-.228V24.641H42.141Zm10.695,1.465V71.881h6.918V42.4a15.328,15.328,0,0,1,1.677-.423c3.532-.586,7.586.081,9.034,3.76,1.091,2.784.538,6.821-1.986,8.855-.1.082-.163.114-.277.2s-.163.13-.277.212c-.114.065-.2.1-.293.146a4.327,4.327,0,0,1-.993.472,10,10,0,0,1-3.207.553v5.893c0,.309.912.1,1.514.1.309,0,.456-.033.814-.049a16.659,16.659,0,0,0,4.982-1.221c.228-.114.358-.163.586-.277.244-.114.374-.2.6-.325A9.2,9.2,0,0,0,73,59.607c3.435-2.6,4.949-6.186,4.949-11.525a12.071,12.071,0,0,0-4.037-9.262,10.154,10.154,0,0,0-1.628-1.172,12.957,12.957,0,0,0-2.2-1.042,15.959,15.959,0,0,0-3.972-.9c-.5-.016-.928-.1-1.514-.1A31.1,31.1,0,0,0,53.34,37.5c-.326.146-.5.13-.5.325" transform="translate(59.915 11.554)" fill="#fff" fill-rule="evenodd"/>
  </g>
</svg>
