<svg xmlns="http://www.w3.org/2000/svg" width="71.772" height="88" viewBox="0 0 71.772 88">
  <g id="ups" transform="translate(0 0.008)">
    <path id="Path_18" data-name="Path 18" d="M35.557,84.134c.729-.364,19.674-8.562,25.685-13.48,6.194-5.1,9.472-12.387,9.472-21.131V8.536l-.546-.182C55.049.157,36.286.7,35.375.7,34.647.7,15.884.157.764,8.354L.4,8.536V49.705c0,8.744,3.279,16.03,9.472,21.131,6.011,4.918,24.956,13.116,25.685,13.3" transform="translate(0.329 0.579)" fill="none"/>
    <path id="Path_19" data-name="Path 19" d="M35.886,85.623S15.848,76.88,9.655,71.961C3.1,66.5,0,59.028,0,50.466V7.84C15.848-.722,35.886.007,35.886.007S55.924-.722,71.772,7.84V50.284c0,8.562-3.1,16.03-9.655,21.5-6.194,5.1-26.231,13.844-26.231,13.844M2.915,50.466c0,8.015,2.915,14.573,8.562,19.127,5.1,4.19,20.22,10.93,24.41,12.751,4.19-1.822,19.491-8.744,24.41-12.751,5.647-4.554,8.562-11.294,8.562-19.127V8.569c-21.131-2-46.269-.911-65.943,17.305V50.466Z" transform="translate(0 0)" fill="#fff"/>
    <path id="Path_20" data-name="Path 20" d="M53.395,32.131c2.732,1.639,3.825,2.732,4.008,4.736,0,2.186-1.457,3.461-3.825,3.461a9.85,9.85,0,0,1-6.011-2.55v5.829a14.622,14.622,0,0,0,6.922,2c6.194,0,9.108-4.372,9.108-8.379.182-3.643-.911-6.558-6.194-9.655-2.368-1.457-4.19-2.368-4.19-4.554s2-3.1,3.643-3.1a8.6,8.6,0,0,1,5.647,2.55V17.012a10.054,10.054,0,0,0-6.922-2c-4.19.182-8.562,3.1-8.562,8.2.182,3.461,1.275,6.011,6.376,8.926M31.9,45.247a9.356,9.356,0,0,0,2.915.364c7.1,0,11.112-6.376,11.112-15.484,0-9.29-4.19-14.937-11.658-14.937a15.733,15.733,0,0,0-8.562,2.186V58.545H31.9v-13.3Zm0-24.774a7.688,7.688,0,0,1,2.186-.546c3.643,0,5.1,2.915,5.1,10.019,0,6.922-1.822,10.2-5.465,10.2a4.875,4.875,0,0,1-2-.364V20.473ZM12.772,45.611a16.63,16.63,0,0,0,9.472-2.55V15.554H15.869V39.418a4.622,4.622,0,0,1-2.915.729c-2.915,0-3.279-2.732-3.279-4.372V15.554H3.3V35.41c0,6.74,3.279,10.2,9.472,10.2M55.216,70.2v4.19h.729V72.754h.182l1.093,1.639h.911s-1.093-1.639-1.275-1.822a1.155,1.155,0,0,0,.911-1.093A1.293,1.293,0,0,0,56.309,70.2H55.216Zm1.093.546c.546,0,.729.364.729.546,0,.364-.182.729-.911.729h-.182V70.75h.364Z" transform="translate(2.711 12.323)" fill="#fff"/>
    <path id="Path_21" data-name="Path 21" d="M36.794,47.961a2.732,2.732,0,1,1-2.732-2.732,2.683,2.683,0,0,1,2.732,2.732M34.061,44.5a3.461,3.461,0,1,0,3.461,3.461A3.583,3.583,0,0,0,34.061,44.5" transform="translate(25.142 36.569)" fill="#fff"/>
  </g>
</svg>
